<?xml version="1.0" encoding="utf-8" ?>	<!-- Generator: Assembly 2.4 - http://assemblyapp.co -->	<svg version="1.1" xmlns="http://www.w3.org/2000/svg" xmlns:xlink="http://www.w3.org/1999/xlink" width="4096.00" height="4096.00" viewBox="0 0 4096.0 4096.0">		<g id="document" transform="scale(1.0 1.0) translate(2048.0 2048.0)">			<path d="M1177.9,0 C1177.9,-650.535 650.535,-1177.9 0,-1177.9 C-650.535,-1177.9 -1177.9,-650.535 -1177.9,0 C-1177.9,650.535 -650.535,1177.9 0,1177.9 C650.535,1177.9 1177.9,650.535 1177.9,0 Z " fill="#000000" fill-opacity="1.00" />			<path d="M395.364,395.364 L395.364,-395.364 L-395.364,-395.364 L-395.364,395.364 L395.364,395.364 Z " fill="#ffffff" fill-opacity="1.00" />			<path d="M-489.195,-404.347 C-489.195,-451.297 -451.297,-489.195 -404.347,-489.195 L-262.934,-489.195 L-262.934,-545.761 L-404.347,-545.761 C-482.408,-545.761 -545.761,-482.408 -545.761,-404.347 L-545.761,-262.934 L-489.195,-262.934 L-489.195,-404.347 Z " fill="#ffffff" fill-opacity="1.00" />			<path d="M404.347,-478.012 C451.297,-478.012 489.195,-440.113 489.195,-393.164 L489.195,-251.75 L545.761,-251.75 L545.761,-393.164 C545.761,-471.224 482.408,-534.577 404.347,-534.577 L262.934,-534.577 L262.934,-478.012 L404.347,-478.012 Z " fill="#ffffff" fill-opacity="1.00" />			<path d="M489.195,404.347 C489.195,451.297 451.297,489.195 404.347,489.195 L262.934,489.195 L262.934,545.761 L404.347,545.761 C482.408,545.761 545.761,482.408 545.761,404.347 L545.761,262.934 L489.195,262.934 L489.195,404.347 Z " fill="#ffffff" fill-opacity="1.00" />			<path d="M-404.347,489.195 C-451.297,489.195 -489.195,451.297 -489.195,404.347 L-489.195,262.934 L-545.761,262.934 L-545.761,404.347 C-545.761,482.408 -482.408,545.761 -404.347,545.761 L-262.934,545.761 L-262.934,489.195 L-404.347,489.195 Z " fill="#ffffff" fill-opacity="1.00" />			<path d="M236.117,145.675 C267.042,145.675 292.078,120.64 292.078,89.7143 C292.078,58.7887 267.042,33.7536 236.117,33.7536 C205.191,33.7536 180.156,58.7887 180.156,89.7143 C180.156,120.64 205.191,145.675 236.117,145.675 Z " fill="#ff0000" fill-opacity="1.00" />		</g>	</svg>